# xmcd
#
# Track frame offsets: 
#        150
#        16545
#        30032
#        45340
#        60185
#        76377
#        92660
#        105042
#        118080
#        130760
#
# Disc length: 1936 seconds
#
# Revision: 0
# Processed by: cddbd v1.4PL0 Copyright (c) Steve Scherf et al.
# Submitted via: ExactAudioCopy v0.90b2
#
DISCID=58078e0a
DTITLE=Janie Frickie - The Very Best Of Janie Frickie
DYEAR=1900
DGENRE=Country
TTITLE0=It Ain't Easy Bein' Easy
TTITLE1=He's A Heartache
TTITLE2=You Don't Know Love
TTITLE3=Let's Stop Talkin' About It
TTITLE4=The First Word In Memory Is Me
TTITLE5=Tell Me A Lie
TTITLE6=She's Single Again
TTITLE7=Your Heart's Not In It
TTITLE8=If The Fall Don't Get You
TTITLE9=Ridin' High (With Merle Haggard)
EXTD=
EXTT0=
EXTT1=
EXTT2=
EXTT3=
EXTT4=
EXTT5=
EXTT6=
EXTT7=
EXTT8=
EXTT9=
PLAYORDER=
